Coordinates
version=1
nRows=13
nColumns=38
inDegrees=yes

Units are S.I. units (second, meters, Newtons, ...)
Angles are in degrees.

endheader
time	pelvis_tilt	pelvis_list	pelvis_rotation	pelvis_tx	pelvis_ty	pelvis_tz	hip_flexion_r	hip_adduction_r	hip_rotation_r	knee_angle_r	ankle_angle_r	subtalar_angle_r	mtp_angle_r	hip_flexion_l	hip_adduction_l	hip_rotation_l	knee_angle_l	ankle_angle_l	subtalar_angle_l	mtp_angle_l	lumbar_extension	lumbar_bending	lumbar_rotation	arm_flex_r	arm_add_r	arm_rot_r	elbow_flex_r	pro_sup_r	wrist_flex_r	wrist_dev_r	arm_flex_l	arm_add_l	arm_rot_l	elbow_flex_l	pro_sup_l	wrist_flex_l	wrist_dev_l
      2.06000000	     -0.50126718	      5.27059367	      2.73030300	     -0.33117194	      0.90265152	      0.19208023	      7.36055720	     -5.12264434	     -1.59351161	    -64.19945231	    -19.81050989	    -17.36570023	     22.63161024	     20.78699249	     10.48299938	      0.60179293	    -28.33389170	      4.21111480	      0.89580616	      2.64715475	     -5.37419768	     -5.82507321	     -0.70478411	     -2.44727583	    -17.81727642	      6.02936442	     28.05847390	     86.51662706	      0.00000000	      0.00000000	     -2.16082816	    -15.95832641	     28.53392206	     11.44743238	     86.51662706	      0.00000000	      0.00000000
      2.07000000	     -0.59373689	      5.20559067	      2.39966345	     -0.31923698	      0.90450275	      0.19195400	      9.63846405	     -4.91610918	     -0.96345359	    -65.85253040	    -18.53426393	    -18.47301851	     21.61777095	     19.75695301	     10.25337237	      0.10293191	    -27.82721579	      4.96016226	      1.50941730	      2.40301651	     -5.39932630	     -5.77400454	     -0.95610356	     -2.25460154	    -17.64716435	      6.95561635	     26.75716992	     86.51662706	      0.00000000	      0.00000000	     -1.72720799	    -16.18990555	     28.53200138	     12.25825131	     86.51662706	      0.00000000	      0.00000000
      2.08000000	     -0.66523138	      5.08835499	      2.11264719	     -0.30725652	      0.90648943	      0.19179409	     11.80433038	     -4.62093394	     -0.39004418	    -67.09028759	    -17.19683821	    -18.88972017	     20.81858685	     18.65166622	     10.01842777	     -0.16391779	    -27.24271127	      5.63458524	      1.96986321	      2.18618786	     -5.44069024	     -5.64661770	     -1.23027511	     -2.12622821	    -17.48743413	      7.81857109	     25.52763355	     86.51662706	      0.00000000	      0.00000000	     -1.28684777	    -16.42367561	     28.49746384	     13.11301466	     86.51662706	      0.00000000	      0.00000000
      2.09000000	     -0.71639729	      4.93159471	      1.88348299	     -0.29522650	      0.90853895	      0.19160186	     13.83975959	     -4.26974705	      0.10997801	    -67.92435542	    -15.81931375	    -18.66044012	     20.23449399	     17.47040333	      9.79292763	     -0.18602133	    -26.58352635	      6.24541757	      2.27418734	      1.99669279	     -5.49582317	     -5.46063697	     -1.52922216	     -2.08067889	    -17.33311777	      8.58553918	     24.38458546	     86.51662706	      0.00000000	      0.00000000	     -0.84081608	    -16.66336866	     28.42417892	     14.01156766	     86.51662706	      0.00000000	      0.00000000
      2.10000000	     -0.74836122	      4.74401511	      1.72273187	     -0.28315259	      0.91058176	      0.19135635	     15.73746055	     -3.89613853	      0.51438524	    -68.37072138	    -14.40859468	    -17.89373538	     19.84324754	     16.22241238	      9.58248134	      0.01946316	    -25.85954770	      6.80115826	      2.43243455	      1.83281808	     -5.56153824	     -5.22873835	     -1.85432541	     -2.12548985	    -17.18275230	      9.23332826	     23.33505097	     86.51662706	      0.00000000	      0.00000000	     -0.38987676	    -16.91145764	     28.30530778	     14.95459902	     86.51662706	      0.00000000	      0.00000000
      2.11000000	     -0.76279791	      4.53219041	      1.63683498	     -0.27102596	      0.91256462	      0.19101856	     17.49849925	     -3.53034160	      0.80016929	    -68.44612090	    -12.97249508	    -16.74398336	     19.60485668	     14.92594286	      9.38643483	      0.41047130	    -25.08810703	      7.30835555	      2.46609033	      1.69174430	     -5.63431968	     -4.95930189	     -2.20637763	     -2.25782440	    -17.03785317	      9.74943484	     22.37796343	     86.51662706	      0.00000000	      0.00000000	      0.06558223	    -17.16875276	     28.13408397	     15.94298576	     86.51662706	      0.00000000	      0.00000000
      2.12000000	     -0.76285518	      4.30156049	      1.62790101	     -0.25884139	      0.91444508	      0.19055663	     19.12783832	     -3.19625605	      0.94943882	    -68.16662218	    -11.53003813	    -15.38958463	     19.46802852	     13.60353918	      9.20128458	      0.92859682	    -24.29133408	      7.77289017	      2.40576209	      1.57023879	     -5.71083738	     -4.65870829	     -2.58561184	     -2.46672815	    -16.90144011	     10.13201277	     21.50490739	     86.51662706	      0.00000000	      0.00000000	      0.52544686	    -17.43460957	     27.90461765	     16.97719397	     86.51662706	      0.00000000	      0.00000000
      2.13000000	     -0.75307047	      4.05743930	      1.69382162	     -0.24661861	      0.91618465	      0.18996570	     20.63008142	     -2.91018097	      0.95431028	    -67.54715675	    -10.11474381	    -14.01098657	     19.37718654	     12.27631143	      9.02280156	      1.50948972	    -23.49101676	      8.20126366	      2.28808798	      1.46530130	     -5.78857586	     -4.33373804	     -2.99155406	     -2.73620714	    -16.77618141	     10.38876763	     20.70179831	     86.51662706	      0.00000000	      0.00000000	      0.98954078	    -17.70755537	     27.61264647	     18.05680788	     86.51662706	      0.00000000	      0.00000000
      2.14000000	     -0.73751000	      3.80642651	      1.82862039	     -0.23438865	      0.91774690	      0.18926198	     22.00710831	     -2.68077335	      0.81905263	    -66.60120758	     -8.77114105	    -12.77109790	     19.27913292	     10.95933262	      8.84661405	      2.09316654	    -22.70315810	      8.60130720	      2.15198906	      1.37468498	     -5.86642194	     -3.99310056	     -3.42258733	     -3.04829447	    -16.66284959	     10.53502949	     19.95112814	     86.51662706	      0.00000000	      0.00000000	      1.45711664	    -17.98598619	     27.25615585	     19.18024501	     86.51662706	      0.00000000	      0.00000000
      2.15000000	     -0.71792914	      3.55686774	      2.02303084	     -0.22217142	      0.91909462	      0.18846591	     23.25800142	     -2.51009528	      0.55908289	    -65.34071648	     -7.54655991	    -11.79968965	     19.12863327	      9.65839977	      8.66849291	      2.63228446	    -21.93453089	      8.98200003	      2.03454625	      1.29725412	     -5.94498898	     -3.64782109	     -3.87541771	     -3.38551950	    -16.55960732	     10.59132253	     19.23435349	     86.51662706	      0.00000000	      0.00000000	      1.92637557	    -18.26864119	     26.83579764	     20.34468897	     86.51662706	      0.00000000	      0.00000000
      2.16000000	     -0.69358503	      3.31780003	      2.26525808	     -0.20996765	      0.92019133	      0.18760061	     24.38026885	     -2.39561334	      0.19736585	    -63.77658724	     -6.48123605	    -11.18250736	     18.89243639	      8.36870350	      8.48537244	      3.09693190	    -21.18225835	      9.35243529	      1.96696385	      1.23317550	     -6.02659406	     -3.31064600	     -4.34480633	     -3.73248360	    -16.46225134	     10.58077842	     18.53406979	     86.51662706	      0.00000000	      0.00000000	      2.39426068	    -18.55476903	     26.35505145	     21.54620253	     86.51662706	      0.00000000	      0.00000000
      2.17000000	     -0.66211788	      3.09750279	      2.54186115	     -0.19775980	      0.92101699	      0.18670386	     25.37116474	     -2.33273312	     -0.24067757	    -61.91978442	     -5.59980266	    -10.95518412	     18.55145767	      7.07680374	      8.29676729	      3.47550357	    -20.43619206	      9.72027906	      1.97122881	      1.18395462	     -6.11495335	     -2.99478596	     -4.82385727	     -4.07653326	    -16.36515092	     10.52672354	     17.83573486	     86.51662706	      0.00000000	      0.00000000	      2.85664966	    -18.84405360	     25.82010714	     22.77991119	     86.51662706	      0.00000000	      0.00000000
      2.18000000	     -0.62016110	      2.90299614	      2.83895766	     -0.18552251	      0.92157620	      0.18582552	     26.22845328	     -2.31704220	     -0.73224918	    -59.78250428	     -4.90643428	    -11.10172832	     18.10110075	      5.76604499	      8.10549694	      3.77217296	    -19.68321423	     10.09024091	      2.05807286	      1.15231743	     -6.21458798	     -2.71233618	     -5.30494254	     -4.40778881	    -16.26242626	     10.45070435	     17.12881318	     86.51662706	      0.00000000	      0.00000000	      3.30889884	    -19.13638015	     25.23949839	     24.04014175	     86.51662706	      0.00000000	      0.00000000
